<?xml version="1.0" encoding="UTF-8"?>
<svg width="173px" height="60px" viewBox="0 0 173 60" version="1.1" xmlns="http://www.w3.org/2000/svg" xmlns:xlink="http://www.w3.org/1999/xlink">
    <title>Doyle Security logo new white-03</title>
    <g id="symbols" stroke="none" stroke-width="1" fill="none" fill-rule="evenodd">
        <g id="Navigation-Toolbar-menu" transform="translate(-577.000000, -21.000000)" fill-rule="nonzero">
            <g id="Doyle-Security-logo-new-white-03" transform="translate(577.000000, 21.000000)">
                <path d="M52.3675676,0.972337199 L60.5205017,0.972337199 C64.0882076,0.841786984 67.6600087,1.07838664 71.1777876,1.67828642 C72.7971494,2.02382658 74.2733445,2.84126854 75.4142243,4.02421001 C76.3539097,5.06161531 76.9805591,6.33679409 77.2235358,7.70600674 C77.5364576,10.3114321 77.6581294,12.9356795 77.5876046,15.5583343 L77.5876046,29.937977 C77.691129,32.4222919 77.513518,34.9102332 77.05805,37.3558742 C76.7664458,38.4998928 76.1183164,39.5253247 75.204609,40.2882787 C74.2338131,41.0285399 73.100243,41.5344306 71.8948928,41.7653417 C69.9639312,42.0883265 68.0057442,42.2265407 66.0477276,42.1780505 L52.3675676,42.1780505 L52.3675676,0.972337199 Z M63.2565337,8.0209687 L63.2565337,35.172862 C64.8231327,35.172862 65.7939827,34.8579 66.1580515,34.2388369 C66.5221203,33.6197737 66.6986385,31.9363563 66.6986385,29.1885847 L66.6986385,13.1363854 C66.7399909,11.9386235 66.6772455,10.7395738 66.5110879,9.55233548 C66.4199044,9.0650129 66.1178908,8.64084319 65.6836588,8.39023445 C64.91519,8.08160686 64.0837912,7.95511685 63.2565337,8.0209687 L63.2565337,8.0209687 Z" id="Shape" fill="#FFFFFF"></path>
                <path d="M105.667938,25.0759206 C105.667938,29.2413591 105.572187,32.1870232 105.380687,33.9129129 C105.009549,37.4992781 102.755601,40.5890775 99.5079973,41.9634238 C97.6154942,42.7735114 95.578801,43.1679261 93.5289186,43.1212992 C91.5378136,43.1559701 89.5597946,42.7846904 87.7094239,42.0289639 C86.0528636,41.3552921 84.6122397,40.2204038 83.5496023,38.7519581 C82.5313997,37.3841209 81.8852294,35.7632039 81.6771506,34.0549165 C81.4225684,31.0767467 81.3195853,28.0869618 81.3686216,25.0977673 L81.3686216,17.997588 C81.3686216,13.8394318 81.464372,10.8937677 81.6558727,9.16059574 C82.0454564,5.57911365 84.2924757,2.49463266 87.5285621,1.09916147 C89.4306785,0.315831319 91.4697763,-0.0560356977 93.5182797,0.00682620234 C95.5093152,-0.0269765692 97.4871697,0.344272185 99.3377744,1.09916147 C102.613459,2.43961739 104.92024,5.5027025 105.359409,9.09505562 C105.608873,12.0735127 105.708303,15.0632136 105.657299,18.0522048 L105.667938,25.0759206 Z M95.1673139,11.4763465 C95.2419856,10.2331509 95.1380285,8.98544023 94.8587849,7.77332995 C94.6557852,7.2371146 94.1288639,6.90625016 93.5714744,6.96500185 C93.0739236,6.93639175 92.5979361,7.1766064 92.3160806,7.59855631 C91.9086329,8.83817444 91.7600093,10.1519971 91.8798845,11.4544998 L91.8798845,30.8325274 C91.8044504,32.3209082 91.9008715,33.8132251 92.1671356,35.278332 C92.3587175,35.8492444 92.9133362,36.2045786 93.4970018,36.1303535 C94.1246882,36.1953537 94.7057664,35.7837371 94.8694238,35.1581751 C95.1386179,33.6345087 95.2385538,32.0844004 95.1673139,30.5375969 L95.1673139,11.4763465 Z" id="Shape" fill="#FFFFFF"></path>
                <path d="M132.789189,0.9375 L124.973614,27.248781 L124.973614,42.1875 L115.052176,42.1875 L115.052176,27.248781 L107.540541,0.9375 L117.385994,0.9375 C118.912926,8.98309831 119.777704,14.4193134 119.98033,17.2461452 C120.573735,12.8391869 121.568774,7.42109251 122.965446,0.991862151 L132.789189,0.9375 Z" id="Path" fill="#FFFFFF"></path>
                <polygon id="Path" fill="#FFFFFF" points="145.128023 0.9375 145.128023 33.9353255 151.491892 33.9353255 151.491892 42.1875 134.659459 42.1875 134.659459 0.9375"></polygon>
                <polygon id="Path" fill="#FFFFFF" points="154.297297 0.9375 172.278563 0.9375 172.278563 9.18967449 165.086057 9.18967449 165.086057 17.0178242 171.819467 17.0178242 171.819467 24.8568463 165.086057 24.8568463 165.086057 33.9353255 173 33.9353255 173 42.1875 154.297297 42.1875"></polygon>
                <path d="M54.3733412,54.9611563 C54.3705607,55.336618 54.4473516,55.7082866 54.5984933,56.0508945 C54.7450274,56.3567758 54.9620274,56.6221944 55.2310635,56.8246085 C55.5072609,57.0300543 55.8205786,57.1781737 56.153115,57.2605038 C56.503008,57.3544459 56.8633733,57.4020618 57.2252679,57.4021697 C57.6059541,57.4094926 57.9855291,57.3580525 58.3510285,57.2496064 C58.6264464,57.1625406 58.8842701,57.0259781 59.112257,56.8464033 C59.3289221,56.7259935 59.5102243,56.5492392 59.637612,56.3342264 C59.7222475,56.1307745 59.7659917,55.9121715 59.7662703,55.6912809 C59.7965077,55.3336662 59.6888679,54.9780991 59.4660675,54.6996192 C59.2848722,54.501427 59.0610357,54.3485119 58.8120542,54.2528266 C58.4046361,54.1002632 57.9328888,53.9585973 57.3968124,53.8169313 C56.860736,53.6752654 56.131672,53.5009073 55.3490004,53.293857 C54.9133106,53.187082 54.4971142,53.010516 54.1160245,52.7707827 C53.8175828,52.5813831 53.552934,52.3418718 53.3333529,52.062453 C53.1493664,51.8137135 53.0113234,51.5330991 52.9259348,51.234252 C52.8492274,50.9390243 52.8096001,50.635114 52.807998,50.3297694 C52.792385,49.7971665 52.9183132,49.270134 53.17253,48.804136 C53.4023042,48.3699882 53.7291441,47.9967291 54.1267461,47.7143979 C54.5354491,47.4219013 54.9932598,47.2077066 55.4776587,47.0823498 C55.9735324,46.9433497 56.485732,46.8736919 57.0001158,46.8752995 C57.5768741,46.8694171 58.1513212,46.950204 58.7048389,47.1150419 C59.2101454,47.2572876 59.6834936,47.4978436 60.0986377,47.8233717 C60.5006045,48.1323897 60.827121,48.531382 61.0528538,48.9893915 C61.2966149,49.4902772 61.4179803,50.04351 61.4066642,50.6022039 L59.3910168,50.6022039 C59.4003489,49.979067 59.1177907,49.3885018 58.6297882,49.0111862 C58.1189617,48.6794677 57.5199551,48.5158442 56.9143436,48.5425989 C56.6693437,48.5415776 56.4249368,48.5671498 56.1852796,48.6188805 C55.9496134,48.6640681 55.7219355,48.7448788 55.5098233,48.8586229 C55.3126492,48.9789099 55.1412827,49.1382635 55.0059114,49.3272103 C54.8670392,49.5481412 54.7961163,49.8061339 54.8022024,50.0682322 C54.7841262,50.4335077 54.9253296,50.7883197 55.1881774,51.0380991 C55.4724339,51.2904683 55.8098927,51.4731497 56.1745581,51.5720708 L56.67847,51.7028394 L57.6648506,51.9752739 L58.7370035,52.2586058 L59.4875106,52.4656561 C59.8370327,52.5735138 60.1666715,52.7391956 60.4631697,52.9560382 C60.7323031,53.1551685 60.9707879,53.3938922 61.1707906,53.664368 C61.5345945,54.1821248 61.7261706,54.8044598 61.7175886,55.4406411 C61.7338461,56.0245496 61.60086,56.6027652 61.3316135,57.1188378 C61.0580956,57.5583495 60.6918799,57.9305718 60.2594606,58.2085759 C59.8138384,58.5146051 59.3155597,58.7327118 58.7906112,58.8515214 C58.2439253,58.9920189 57.6819358,59.061589 57.1180526,59.0585716 C56.5234176,59.0788974 55.9287146,59.0202834 55.3490004,58.8842135 C54.8011724,58.7375209 54.287368,58.4819607 53.8372648,58.1322942 C53.3837709,57.78806 53.0164615,57.3400593 52.7651119,56.8246085 C52.4913232,56.2435368 52.3554518,55.6052915 52.3684153,54.9611563 L54.3733412,54.9611563 Z" id="Path" fill="#FFFFFF"></path>
                <polygon id="Path" fill="#FFFFFF" points="69.2 46.875 77.5084542 46.875 77.5084542 48.5766807 71.2151504 48.5766807 71.2151504 51.5178571 77.0343011 51.5178571 77.0343011 53.125 71.2151504 53.125 71.2151504 56.4233193 77.6162162 56.4233193 77.6162162 58.125 69.2 58.125"></polygon>
                <path d="M93.3434874,50.8509528 C93.264084,50.5298214 93.1469365,50.2198114 92.9946284,49.9277596 C92.7014274,49.3510444 92.200782,48.914617 91.5991925,48.7113168 C91.2595666,48.589693 90.9016514,48.5308577 90.5420441,48.5375393 C89.9973941,48.5240813 89.4585535,48.6550008 88.9774644,48.9176777 C88.550314,49.1561522 88.1871612,49.4994056 87.920316,49.9168985 C87.6299766,50.3469356 87.4218972,50.8297831 87.3071699,51.3397022 C87.038619,52.4082894 87.038619,53.5294439 87.3071699,54.5980311 C87.4218972,55.1079501 87.6299766,55.5907977 87.920316,56.0208347 C88.1868286,56.4414275 88.5498553,56.7882916 88.9774644,57.0309167 C89.4595358,57.2898265 89.9983231,57.4169929 90.5420441,57.400194 C90.9454606,57.4093158 91.3459452,57.3277659 91.7154788,57.1612499 C92.0477508,57.0125038 92.3438041,56.789945 92.5823405,56.5095841 C92.8305853,56.2274914 93.0243174,55.8994448 93.1532006,55.5429465 C93.3026299,55.1635924 93.4021737,54.7654665 93.4492022,54.359087 L95.3837838,54.359087 C95.3503088,55.0152377 95.199811,55.6594908 94.9397815,56.2597789 C94.450833,57.4023615 93.5314079,58.292101 92.3920538,58.7252477 C91.7908105,58.9573338 91.1525413,59.0715384 90.5103296,59.0619417 C89.7246258,59.0728084 88.9458475,58.9098223 88.2268891,58.5840535 C87.5762979,58.2731708 86.9964618,57.825455 86.5248801,57.2698608 C86.0536508,56.7020761 85.6945817,56.0454234 85.4677317,55.3365857 C85.2140775,54.5747477 85.0889442,53.7739937 85.0977298,52.9688666 C85.0899033,52.1709084 85.2150433,51.3774585 85.4677317,50.6228698 C85.6945817,49.9140321 86.0536508,49.2573794 86.5248801,48.6895946 C86.9958405,48.1305499 87.5756478,47.6791563 88.2268891,47.3645409 C88.9431165,47.0289659 89.7232552,46.8619844 90.5103296,46.8757915 C91.1160109,46.8697868 91.7188619,46.961409 92.2969104,47.1473189 C92.8344865,47.3080785 93.3369493,47.5735672 93.7769182,47.9293179 C94.2115757,48.2638732 94.571943,48.689649 94.8340666,49.178344 C95.1083242,49.695516 95.2773683,50.2645792 95.3309264,50.8509528 L93.3434874,50.8509528 Z" id="Path" fill="#FFFFFF"></path>
                <path d="M102.876494,46.875 L104.885169,46.875 L104.885169,53.813993 C104.885169,54.2143196 104.885169,54.6146461 104.938591,55.0260928 C104.975174,55.4148846 105.084038,55.7925647 105.259125,56.1381109 C105.452268,56.4779354 105.728849,56.7581204 106.060458,56.9498841 C107.032575,57.3651233 108.122721,57.3651233 109.094839,56.9498841 C109.426447,56.7581204 109.703029,56.4779354 109.896172,56.1381109 C110.071258,55.7925647 110.180122,55.4148846 110.216705,55.0260928 C110.216705,54.6146461 110.216705,54.2143196 110.216705,53.813993 L110.216705,46.875 L112.214696,46.875 L112.214696,54.4923241 C112.230838,55.1756369 112.118317,55.8556314 111.883478,56.4939567 C111.674342,57.037344 111.349164,57.5240885 110.932563,57.9173399 C110.503543,58.3147457 109.996869,58.610662 109.447425,58.784714 C108.189986,59.1550953 106.858466,59.1550953 105.601027,58.784714 C105.051583,58.610662 104.544909,58.3147457 104.115889,57.9173399 C103.714769,57.5194738 103.404436,57.0330901 103.207712,56.4939567 C102.969227,55.8563916 102.853072,55.1763726 102.86581,54.4923241 L102.876494,46.875 Z" id="Path" fill="#FFFFFF"></path>
                <path d="M120.632432,46.8860693 L125.917081,46.8860693 C126.89297,46.8137875 127.862319,47.0972239 128.6523,47.6858434 C129.275855,48.2524593 129.613707,49.0768326 129.570921,49.9273155 C129.583714,50.3847808 129.502863,50.8399442 129.333524,51.2637801 C129.202438,51.5764093 129.021033,51.8645071 128.796802,52.1161709 C128.619195,52.3070358 128.409441,52.4638628 128.177507,52.5791981 L127.744001,52.7686182 L127.744001,52.7686182 C127.9261,52.7946837 128.103458,52.8478676 128.270402,52.9264684 C128.474797,53.0199798 128.657652,53.156216 128.807124,53.3263554 C128.98552,53.5417809 129.125279,53.7875776 129.219987,54.0524661 C129.336374,54.4085015 129.392227,54.7821977 129.385132,55.1574172 C129.376983,55.7605707 129.42537,56.3631386 129.529634,56.9569089 C129.573547,57.3812515 129.730612,57.7852281 129.983784,58.125 L127.919468,58.125 C127.775518,57.8777816 127.687372,57.6009835 127.661428,57.3147026 C127.661428,57.0200489 127.661428,56.7359187 127.661428,56.4623118 C127.666236,56.014987 127.635168,55.5680102 127.568534,55.1258471 C127.522066,54.7956686 127.405853,54.479709 127.227922,54.1997929 C127.06267,53.9491433 126.824385,53.7577336 126.546698,53.6525791 C126.199103,53.5272221 125.831372,53.4700916 125.462932,53.4842056 L122.614176,53.4842056 L122.614176,58.125 L120.632432,58.125 L120.632432,46.8860693 Z M122.572889,52.0109375 L125.741614,52.0109375 C126.252383,52.0500465 126.758433,51.8881087 127.155671,51.5584338 C127.497703,51.2006684 127.670887,50.7093428 127.630464,50.2114458 C127.640341,49.9123893 127.58756,49.6146229 127.47564,49.3380083 C127.384005,49.1267277 127.23772,48.944844 127.052455,48.8118411 C126.865295,48.6850534 126.654454,48.5990685 126.43316,48.5592809 C126.194606,48.5166693 125.952837,48.4955411 125.71065,48.4961284 L122.614176,48.4961284 L122.572889,52.0109375 Z" id="Shape" fill="#FFFFFF"></path>
                <polygon id="Path" fill="#FFFFFF" points="137.464865 46.875 139.335135 46.875 139.335135 58.125 137.464865 58.125"></polygon>
                <polygon id="Path" fill="#FFFFFF" points="146.816216 46.875 156.167568 46.875 156.167568 48.5766807 152.49805 48.5766807 152.49805 58.125 150.464212 58.125 150.464212 48.5766807 146.816216 48.5766807"></polygon>
                <polygon id="Path" fill="#FFFFFF" points="165.934535 53.7132353 161.778378 46.875 164.033093 46.875 166.983964 51.9170168 169.882883 46.875 172.064865 46.875 167.908709 53.7132353 167.908709 58.125 165.965706 58.125"></polygon>
                <path d="M45.8216216,0 L29.6264659,0 C29.6264659,0 29.6264659,37.1218193 29.6264659,37.1545161 C29.6255849,40.2066061 27.5505322,42.8687531 24.5880783,43.618414 C21.6256245,44.3680748 18.5315916,43.0139856 17.0755286,40.3305812 C15.6194655,37.6471768 16.1728632,34.3190844 18.4192207,32.2497169 C20.6655783,30.1803494 24.0317738,29.8976724 26.5926025,31.5633554 C26.5926025,31.5633554 26.5926025,31.5633554 26.5926025,31.5633554 L26.5926025,14.6154902 C23.0667702,14.0363287 19.4536273,14.3015447 16.0504728,15.3893156 C4.8645992,18.8739877 -1.86971232,30.2435206 0.459088751,41.712237 C2.78788982,53.1809535 13.4251254,61.0322676 25.086584,59.8897231 C36.9492081,58.7998283 45.8216216,48.5003217 45.8216216,36.6095687 L45.8216216,0 Z" id="Path" fill="#DB251C"></path>
            </g>
        </g>
    </g>
</svg>