<?xml version="1.0" encoding="UTF-8"?>
<svg width="40px" height="36px" viewBox="0 0 40 36" version="1.1" xmlns="http://www.w3.org/2000/svg" xmlns:xlink="http://www.w3.org/1999/xlink">
    <title>“</title>
    <g id="concepts" stroke="none" stroke-width="1" fill="none" fill-rule="evenodd">
        <g id="case-study" transform="translate(-1262.000000, -5307.000000)" fill="#DB251C">
            <g id="Group-3" transform="translate(577.000000, 5201.000000)">
                <g id="Group-17" transform="translate(685.017457, 106.000000)">
                    <path d="M33.0701516,35.52 C36.4511256,35.52 39.8320996,32.16 39.8320996,28.08 C39.8320996,23.28 37.4020245,19.8 33.2814625,19.8 C31.8022864,19.8 31.1683538,18.48 31.1683538,16.68 C31.1683538,12.6 34.3380169,8.4 37.2963691,6.36 C38.1416126,5.64 38.8812006,4.68 38.8812006,3.12 C38.8812006,0.96 37.7189908,0 36.3454702,0 C35.817193,0 33.8097397,1.2 33.1758071,1.8 C29.3722113,5.4 23.244196,11.64 23.244196,21.84 C23.244196,28.32 26.8364809,35.52 33.0701516,35.52 Z M9.82595559,35.52 C13.2069296,35.52 16.5879035,32.16 16.5879035,28.08 C16.5879035,23.28 14.1578285,19.8 10.0372665,19.8 C8.55809036,19.8 7.92415774,18.48 7.92415774,16.68 C7.92415774,12.6 11.0938208,8.4 14.0521731,6.36 C14.8974165,5.64 15.6370046,4.68 15.6370046,3.12 C15.6370046,0.96 14.4747948,0 13.1012741,0 C12.5729969,0 10.5655436,1.2 9.93161103,1.8 C6.12801532,5.4 0,11.64 0,21.84 C0,28.32 3.59228484,35.52 9.82595559,35.52 Z" id="“"></path>
                </g>
            </g>
        </g>
    </g>
</svg>