<?xml version="1.0" encoding="UTF-8"?>
<svg width="1236px" height="1618px" viewBox="0 0 1236 1618" version="1.1" xmlns="http://www.w3.org/2000/svg" xmlns:xlink="http://www.w3.org/1999/xlink">
    <title>Path</title>
    <g id="symbols" stroke="none" stroke-width="1" fill="none" fill-rule="evenodd">
        <g id="casestudies-icons" transform="translate(-36.000000, -42.000000)" fill-rule="nonzero" stroke="#FFFFFF" stroke-width="12">
            <path d="M1266,48 L833.390461,48 C833.390461,48 833.390461,1041.62736 833.390461,1042.50255 C833.366927,1124.19682 777.937539,1195.45363 698.80364,1215.51955 C619.669742,1235.58547 537.02107,1199.34102 498.126306,1127.51522 C459.231541,1055.68943 474.014055,966.607493 534.019387,911.217423 C594.024719,855.827352 683.943477,848.261032 752.349051,892.845814 C752.349051,892.845814 752.349051,892.845814 752.349051,892.845814 L752.349051,439.207955 C658.166031,423.705732 561.650746,430.804681 470.744728,459.92068 C171.944537,553.193738 -7.94427954,857.518234 54.2633074,1164.49754 C116.470894,1471.47686 400.615712,1681.63036 712.119862,1651.04826 C1028.9976,1621.8754 1266,1346.19194 1266,1027.91612 L1266,48 Z" id="Path"></path>
        </g>
    </g>
</svg>