<?xml version="1.0" encoding="UTF-8"?>
<svg width="30px" height="30px" viewBox="0 0 30 30" version="1.1" xmlns="http://www.w3.org/2000/svg" xmlns:xlink="http://www.w3.org/1999/xlink">
    <title>Group Copy</title>
    <g id="symbols" stroke="none" stroke-width="1" fill="none" fill-rule="evenodd">
        <g id="vacancy" transform="translate(-93.000000, -181.000000)">
            <g id="Group-Copy" transform="translate(93.000000, 181.000000)">
                <circle id="Oval" stroke="#000000" stroke-width="2" cx="15" cy="15" r="14"></circle>
                <g id="£" transform="translate(10.514785, 9.501953)" fill="#000000" fill-rule="nonzero">
                    <path d="M0,12.234375 L9.33398438,12.234375 L9.33398438,10.8808594 L2.42578125,10.8808594 L2.42578125,10.761795 C3.0234375,10.4565582 3.47701263,10.06604 3.78650665,9.59024048 C4.09600067,9.11444092 4.25074768,8.56878662 4.25074768,7.95327759 C4.25074768,7.67202759 4.22483826,7.41121674 4.17301941,7.17084503 C4.12120056,6.93047333 4.05214691,6.69889069 3.96585846,6.47609711 C3.87957001,6.25330353 3.79042053,6.03343964 3.69841003,5.81650543 C3.60639954,5.59957123 3.51725006,5.37966156 3.43096161,5.15677643 C3.34467316,4.9338913 3.27561951,4.70059204 3.22380066,4.45687866 C3.17198181,4.21316528 3.14607239,3.95320129 3.14607239,3.67698669 C3.14607239,2.96534729 3.41386414,2.40751648 3.94944763,2.00349426 C4.48503113,1.59947205 5.21759033,1.39746094 6.14712524,1.39746094 C6.63510132,1.39746094 7.12378693,1.4426651 7.61318207,1.53307343 C8.10257721,1.62348175 8.46524048,1.73570251 8.70117188,1.86973572 L8.70117188,0.464172363 C8.39968872,0.319610596 8.01324463,0.206108093 7.5418396,0.123664856 C7.07043457,0.0412216187 6.57824707,0 6.0652771,0 C5.13043213,0 4.32369232,0.149345398 3.64505768,0.448036194 C2.96642303,0.74672699 2.44406891,1.17338562 2.0779953,1.72801208 C1.71192169,2.28263855 1.52888489,2.94534302 1.52888489,3.71612549 C1.52888489,3.99023437 1.55765533,4.25058746 1.61519623,4.49718475 C1.67273712,4.74378204 1.74472046,4.9792099 1.83114624,5.20346832 C1.91757202,5.42772675 2.01118469,5.65045166 2.11198425,5.87164307 C2.21278381,6.09283447 2.30779266,6.31510162 2.3970108,6.53844452 C2.48622894,6.76178741 2.55821228,6.9944458 2.61296082,7.23641968 C2.66770935,7.47839355 2.69508362,7.73799133 2.69508362,8.01521301 C2.69508362,8.69599915 2.44686127,9.30198669 1.95041656,9.83317566 C1.45397186,10.3643646 0.803833008,10.7194519 0,10.8984375 L0,12.234375 Z M0,6.72363281 L7.8046875,6.72363281 L7.8046875,5.52832031 L0,5.52832031 L0,6.72363281 Z" id="Shape"></path>
                </g>
            </g>
        </g>
    </g>
</svg>