<?xml version="1.0" encoding="UTF-8"?>
<svg width="772px" height="914px" viewBox="0 0 772 914" version="1.1" xmlns="http://www.w3.org/2000/svg" xmlns:xlink="http://www.w3.org/1999/xlink">
    <title>Group 15</title>
    <g id="symbols" stroke="none" stroke-width="1" fill="none" fill-rule="evenodd" opacity="0.1">
        <g id="service-icons" transform="translate(-79.000000, -74.000000)">
            <g id="Group-13" transform="translate(85.000000, 80.000000)">
                <path d="M554.565376,716.020619 C435.174853,773.455996 294.638793,773.892352 174.887992,717.384232 M636.819572,840.245758 C465.687612,922.00799 264.541739,922.580707 92.9663609,841.96391" id="Stroke-1" stroke="#FFFFFF" stroke-width="12" stroke-linecap="round"></path>
                <path d="M667,295 C667,295 667.012995,300.505155 667.038986,311.515464 C667.38405,483.553009 531.753295,623.030928 364.892966,623.030928 C198.00532,623.030928 62.7522936,483.553118 62.7522936,311.515464 C62.7522936,307.755553 62.8348624,302.250398 63,295" id="Stroke-3" stroke="#FFFFFF" stroke-width="12"></path>
                <path d="M495.045872,427.752577 C495.045872,500.935657 436.259908,560.262887 363.744507,560.262887 C291.201866,560.262887 232.415902,500.935657 232.415902,427.752577 C232.415902,354.569498 291.201866,295.242268 363.744507,295.242268 C436.259908,295.242268 495.045872,354.569498 495.045872,427.752577" id="Fill-5" fill="#FFFFFF"></path>
                <path d="M402.079511,426.590206 C402.079511,447.788185 384.893866,464.948454 363.730887,464.948454 C342.538226,464.948454 325.382263,447.788185 325.382263,426.590206 C325.382263,405.392227 342.538226,388.231959 363.730887,388.231959 C384.893866,388.231959 402.079511,405.392227 402.079511,426.590206" id="Fill-7" fill="#0A0A0A"></path>
                <path d="M649.772024,290.726718 C473.012541,243.914403 284.849221,244.106369 108.171978,291.275193 C56.717644,304.932212 16.2833642,282.581869 16.2833642,235.714706 C10.8281631,196.882698 5.42778807,158.105537 0,119.383223 C0,92.5902346 29.2497468,59.4075156 58.3076022,50.165717 C265.440767,-16.4465346 491.845321,-16.720772 699.115551,49.3430049 C728.228233,58.4751086 760.027395,92.5628108 760,119.383223 C753.914281,157.858723 747.828579,196.38907 741.715464,234.974265 C741.715464,281.868852 701.253771,304.274043 649.772024,290.726718" id="Fill-9"></path>
                <path d="M649.772024,290.728909 C473.012541,243.915319 284.849221,244.109682 108.171978,291.284231 C56.717644,304.91737 16.2833642,282.593452 16.2833642,235.696564 C10.8281631,196.879601 5.42778807,158.090405 0,119.384507 C0,92.5624854 29.2497468,59.4098007 58.3076022,50.1637002 C265.440767,-16.4470958 491.845321,-16.7247565 699.115551,49.3584843 C728.228233,58.4657544 760.027395,92.5624854 760,119.384507 C753.914281,157.84051 747.828579,196.379812 741.715464,234.974646 C741.715464,281.871534 701.253771,304.27875 649.772024,290.728909 Z" id="Stroke-11" stroke="#FFFFFF" stroke-width="12" stroke-linejoin="round"></path>
            </g>
        </g>
    </g>
</svg>